HIERARCHY
ROOT Hips
{
 OFFSET 0.000000 0.000000 0.000000
 CHANNELS 6 Xposition Yposition Zposition Yrotation Xrotation Zrotation
 JOINT Chest
 {
  OFFSET 0.000000 9.585900 0.002600
  CHANNELS 3 Yrotation Xrotation Zrotation
  JOINT Chest2
  {
   OFFSET 0.000000 9.601200 -0.005300
   CHANNELS 3 Yrotation Xrotation Zrotation
   JOINT Chest3
   {
    OFFSET 0.000000 9.561800 0.000000
    CHANNELS 3 Yrotation Xrotation Zrotation
    JOINT Chest4
    {
     OFFSET 0.000000 9.552100 0.000000
     CHANNELS 3 Yrotation Xrotation Zrotation
     JOINT Neck
     {
      OFFSET 0.000000 14.453000 0.000000
      CHANNELS 3 Yrotation Xrotation Zrotation
      JOINT Head
      {
       OFFSET 0.000000 8.936500 -0.011300
       CHANNELS 3 Yrotation Xrotation Zrotation
       End Site
       {
        OFFSET 0.000000 17.073600 -0.006000
       }
      }
     }
     JOINT RightCollar
     {
      OFFSET -2.921100 9.558500 0.000000
      CHANNELS 3 Yrotation Xrotation Zrotation
      JOINT RightShoulder
      {
       OFFSET -13.519700 0.000000 0.000000
       CHANNELS 3 Yrotation Xrotation Zrotation
       JOINT RightElbow
       {
        OFFSET 0.000000 -29.696600 0.000000
        CHANNELS 3 Yrotation Xrotation Zrotation
        JOINT RightWrist
        {
         OFFSET 0.000000 -24.004700 0.000000
         CHANNELS 3 Yrotation Xrotation Zrotation
         End Site
         {
          OFFSET 0.000000 -17.728500 0.000000
         }
        }
       }
      }
     }
     JOINT LeftCollar
     {
      OFFSET 2.921100 9.558500 0.000000
      CHANNELS 3 Yrotation Xrotation Zrotation
      JOINT LeftShoulder
      {
       OFFSET 13.519700 0.000000 0.000000
       CHANNELS 3 Yrotation Xrotation Zrotation
       JOINT LeftElbow
       {
        OFFSET 0.000000 -29.696600 0.000000
        CHANNELS 3 Yrotation Xrotation Zrotation
        JOINT LeftWrist
        {
         OFFSET 0.000000 -24.004700 0.000000
         CHANNELS 3 Yrotation Xrotation Zrotation
         End Site
         {
          OFFSET 0.000000 -17.728500 0.000000
         }
        }
       }
      }
     }
    }
   }
  }
 }
 JOINT RightHip
 {
  OFFSET -7.771700 -0.012900 -0.001300
  CHANNELS 3 Yrotation Xrotation Zrotation
  JOINT RightKnee
  {
   OFFSET 0.000000 -40.869800 0.001200
   CHANNELS 3 Yrotation Xrotation Zrotation
   JOINT RightAnkle
   {
    OFFSET 0.000000 -39.717900 0.002100
    CHANNELS 3 Yrotation Xrotation Zrotation
    JOINT RightToe
    {
     OFFSET 0.000000 -4.965400 11.033500
     CHANNELS 3 Yrotation Xrotation Zrotation
     End Site
     {
      OFFSET 0.000000 -1.423100 5.872300
     }
    }
   }
  }
 }
 JOINT LeftHip
 {
  OFFSET 7.771700 -0.012900 -0.001300
  CHANNELS 3 Yrotation Xrotation Zrotation
  JOINT LeftKnee
  {
   OFFSET 0.000000 -40.869800 0.001200
   CHANNELS 3 Yrotation Xrotation Zrotation
   JOINT LeftAnkle
   {
    OFFSET 0.000000 -39.717900 0.002100
    CHANNELS 3 Yrotation Xrotation Zrotation
    JOINT LeftToe
    {
     OFFSET 0.000000 -4.965400 11.033500
     CHANNELS 3 Yrotation Xrotation Zrotation
     End Site
     {
      OFFSET 0.000000 -1.423100 5.872300
     }
    }
   }
  }
 }
}
MOTION
Frames: 12
Frame Time: 0.008333
0.000000 85.388000 0.000000 0.000000 -5.767877 0.000000 0.000000 11.653817 0.000000 0.000000 -5.885947 0.000000 0.000000 -0.000000 0.000000 0.000000 -0.000000 0.000000 0.000000 12.528835 0.000000 0.000000 0.711642 0.000000 0.000000 -0.000000 0.000000 0.000000 0.000000 -90.000000 0.000000 -2.309062 0.000000 0.000000 2.309062 0.000000 0.000000 -0.000000 0.000000 0.000000 -0.000000 90.000000 0.000000 -2.309062 0.000000 0.000000 2.309062 0.000000 0.000000 8.520406 0.000000 0.000000 1.905762 0.000000 -0.000000 -4.658285 0.000000 0.000000 -0.000000 0.000000 0.000000 8.520406 0.000000 0.000000 1.905762 0.000000 -0.000000 -4.658285 0.000000 0.000000 -0.000000 0.000000
-49.511367 50.649397 0.649155 162.920064 -5.391318 -0.065012 4.301685 6.507945 0.671670 0.184343 0.304734 -0.018624 0.321414 0.532957 -0.032771 3.760057 6.252493 -0.191387 1.988083 16.816235 0.087326 3.630064 -4.536362 -0.530101 1.881569 6.306544 0.266759 -6.182466 -13.696344 -7.959603 -47.860278 -70.097370 69.346569 -5.126524 -1.107191 -33.994077 -6.279490 3.181255 0.760827 20.047864 -6.869723 1.446431 79.422957 -83.546279 -100.337105 1.225828 8.824191 12.761223 -5.365443 -74.680820 -0.701746 -120.268038 80.959582 -117.843849 0.266290 -16.133265 -1.228509 -0.345672 0.938564 -0.167783 -9.405438 -78.481656 27.138304 113.468947 78.213608 110.649188 -16.098996 -22.108971 -0.385457 -0.329375 -1.112845 -0.155029
-49.512723 50.649710 0.648549 162.915905 -5.393409 -0.058413 4.306113 6.511081 0.669752 0.185412 0.303820 -0.019940 0.321715 0.534555 -0.031119 3.766550 6.244617 -0.189781 1.978539 16.816332 0.083686 3.616622 -4.555220 -0.531149 1.870998 6.314735 0.267775 -6.198901 -13.683936 -7.984249 -47.813639 -70.090861 69.291025 -5.134354 -1.083496 -34.091211 -6.274949 3.183017 0.763481 20.049515 -6.862029 1.442572 79.475666 -83.536898 -100.361054 1.250240 8.795010 12.836801 -5.357007 -74.677768 -0.715471 -120.280468 80.967270 -117.858716 0.271506 -16.137701 -1.222321 -0.350984 0.942613 -0.176658 -9.356601 -78.480127 27.094760 113.453093 78.204102 110.630691 -16.111969 -22.105469 -0.382063 -0.327561 -1.115866 -0.151994
-49.514109 50.649968 0.649020 162.909554 -5.389951 -0.055030 4.312347 6.510050 0.671575 0.185928 0.301737 -0.024010 0.323549 0.537957 -0.025819 3.783182 6.251176 -0.179563 1.956216 16.802231 0.069771 3.596364 -4.568980 -0.528862 1.849049 6.306620 0.257765 -6.214728 -13.671513 -8.006182 -47.792336 -70.073660 69.234853 -5.130620 -1.096421 -34.130492 -6.279492 3.172868 0.761335 20.100680 -6.849406 1.432270 79.575902 -83.518548 -100.484062 1.260943 8.777832 12.875963 -5.352569 -74.679926 -0.722316 -120.258132 80.969975 -117.831343 0.274270 -16.138840 -1.224676 -0.345053 0.945635 -0.179337 -9.325778 -78.483661 27.072303 113.444100 78.204288 110.623686 -16.133365 -22.101334 -0.379312 -0.303325 -1.118672 -0.145932
-49.516521 50.650239 0.649192 162.902313 -5.387183 -0.047053 4.320099 6.509047 0.668171 0.182134 0.305195 -0.022145 0.330417 0.535546 -0.026643 3.787744 6.252473 -0.176117 1.943574 16.799216 0.074173 3.572854 -4.577480 -0.534124 1.848356 6.305748 0.256944 -6.252539 -13.659534 -8.028673 -47.832130 -70.065499 69.289978 -5.129053 -1.103679 -34.185303 -6.261472 3.181298 0.765812 20.118047 -6.848155 1.416081 79.675585 -83.504797 -100.594505 1.256967 8.776082 12.876261 -5.335708 -74.681189 -0.744802 -120.218099 80.968041 -117.788861 0.294232 -16.145515 -1.229560 -0.353722 0.953503 -0.178646 -9.266994 -78.491084 27.028197 113.435168 78.196510 110.614861 -16.179120 -22.086425 -0.367108 -0.319823 -1.129473 -0.146756
-49.519819 50.650558 0.649620 162.900956 -5.382257 -0.036673 4.321342 6.504980 0.658909 0.193877 0.307488 -0.015041 0.325150 0.534887 -0.030942 3.792744 6.252134 -0.172380 1.929303 16.799291 0.070522 3.548754 -4.570753 -0.528280 1.838747 6.311729 0.261711 -6.285497 -13.651390 -8.047972 -47.843682 -70.064624 69.292582 -5.133461 -1.115427 -34.201013 -6.268796 3.182265 0.761755 20.147180 -6.839216 1.410483 79.761137 -83.501197 -100.703785 1.265549 8.769358 12.899034 -5.320238 -74.683004 -0.776811 -120.219327 80.979539 -117.783606 0.298877 -16.156163 -1.235009 -0.353923 0.964588 -0.180389 -9.198692 -78.501002 26.968145 113.433760 78.190398 110.607645 -16.205367 -22.068576 -0.347573 -0.389196 -1.136722 -0.162868
-49.520217 50.651052 0.650089 162.903108 -5.383273 -0.044258 4.329028 6.506943 0.670146 0.189997 0.307455 -0.015017 0.329015 0.534847 -0.029882 3.798634 6.250614 -0.167726 1.912372 16.801972 0.065891 3.529196 -4.562414 -0.524179 1.825191 6.317237 0.264713 -6.322349 -13.639909 -8.064832 -47.864655 -70.045643 69.279104 -5.119198 -1.125506 -34.152953 -6.278137 3.183844 0.757807 20.159666 -6.834106 1.405865 79.809388 -83.487384 -100.723575 1.300063 8.745894 12.957182 -5.356844 -74.679141 -0.749589 -120.210798 80.982247 -117.767017 0.297028 -16.153372 -1.238417 -0.347909 0.961810 -0.179618 -9.231917 -78.501373 27.001731 113.429746 78.184221 110.600836 -16.198126 -22.056699 -0.345123 -0.390082 -1.142259 -0.166375
-49.518884 50.651638 0.651522 162.899393 -5.383166 -0.062910 4.353182 6.507563 0.697955 0.183145 0.305693 -0.018331 0.329462 0.534724 -0.029502 3.798340 6.249138 -0.164472 1.902109 16.815127 0.071692 3.494677 -4.553284 -0.526748 1.817163 6.325542 0.271057 -6.383501 -13.602645 -8.066991 -47.938597 -70.065772 69.374710 -5.110953 -1.124994 -34.140558 -6.254174 3.181153 0.768025 20.144482 -6.818772 1.392054 79.766652 -83.454869 -100.634545 1.300334 8.733311 12.968619 -5.431780 -74.675508 -0.676659 -120.197640 80.985197 -117.742797 0.295879 -16.146670 -1.244880 -0.341422 0.956375 -0.172788 -9.322027 -78.499236 27.094794 113.412512 78.174056 110.576121 -16.147643 -22.051341 -0.352398 -0.368178 -1.140375 -0.165757
-49.518420 50.652373 0.652672 162.908955 -5.384794 -0.076266 4.354971 6.508339 0.714064 0.189642 0.305528 -0.016891 0.326724 0.534776 -0.029813 3.788291 6.248724 -0.165472 1.898947 16.821364 0.074189 3.449749 -4.534376 -0.520429 1.822333 6.343597 0.298251 -6.413280 -13.602349 -8.082419 -47.962426 -70.080166 69.405946 -5.114387 -1.126734 -34.178829 -6.240279 3.181799 0.773005 20.178625 -6.796774 1.371063 79.871672 -83.462599 -100.782705 1.323333 8.733089 13.008244 -5.496937 -74.666615 -0.634020 -120.192911 80.995030 -117.732728 0.317749 -16.147781 -1.243350 -0.355770 0.957736 -0.184282 -9.393278 -78.498018 27.156748 113.399827 78.168143 110.556549 -16.106742 -22.036165 -0.358394 -0.344912 -1.145415 -0.161555
-49.519689 50.653133 0.654207 162.911837 -5.383082 -0.077724 4.355510 6.506604 0.716348 0.198634 0.304396 -0.014861 0.327522 0.535009 -0.029321 3.795999 6.247685 -0.161205 1.878987 16.827758 0.074429 3.411996 -4.523684 -0.515029 1.802899 6.356951 0.307622 -6.432029 -13.601197 -8.085514 -47.980371 -70.088911 69.424429 -5.109878 -1.122368 -34.187390 -6.250389 3.186637 0.774050 20.180542 -6.791877 1.360156 79.821308 -83.450214 -100.709652 1.309598 8.728264 12.988624 -5.496299 -74.666470 -0.643737 -120.171222 80.994773 -117.701027 0.324469 -16.145214 -1.251982 -0.352785 0.957155 -0.180532 -9.394764 -78.500913 27.161494 113.386088 78.170334 110.540256 -16.118272 -22.015217 -0.354014 -0.350097 -1.153538 -0.159248
-49.521154 50.653936 0.655988 162.918319 -5.381571 -0.076169 4.360290 6.504595 0.717389 0.198716 0.301950 -0.014330 0.328293 0.535207 -0.028881 3.804684 6.250886 -0.155319 1.858200 16.830208 0.075379 3.375044 -4.512446 -0.505403 1.781387 6.362839 0.308227 -6.437278 -13.603500 -8.088328 -48.023296 -70.083650 69.444222 -5.095114 -1.110518 -34.167491 -6.262318 3.192851 0.774520 20.183943 -6.788576 1.346841 79.692077 -83.440903 -100.549091 1.332305 8.727641 13.051124 -5.490551 -74.668877 -0.659321 -120.162909 80.993862 -117.686594 0.322700 -16.138110 -1.252444 -0.355086 0.953483 -0.174449 -9.381357 -78.505921 27.148005 113.365135 78.172500 110.517635 -16.144053 -21.990634 -0.345907 -0.397935 -1.161934 -0.164351
-49.522694 50.654741 0.658175 162.927324 -5.379301 -0.072280 4.369853 6.495462 0.718539 0.189383 0.304249 -0.015463 0.328833 0.535185 -0.028593 3.815784 6.250928 -0.148061 1.834111 16.837765 0.077176 3.339708 -4.495959 -0.490719 1.758321 6.373447 0.306885 -6.459454 -13.592922 -8.076260 -48.054112 -70.098740 69.463492 -5.079978 -1.091151 -34.149421 -6.272954 3.207934 0.773341 20.196701 -6.778624 1.320232 79.484312 -83.448567 -100.305696 1.329226 8.710975 13.063605 -5.484036 -74.672745 -0.678444 -120.160084 80.993581 -117.677885 0.318072 -16.131160 -1.256593 -0.349041 0.949056 -0.170576 -9.349613 -78.513393 27.115406 113.339317 78.174817 110.493934 -16.185906 -21.959331 -0.335133 -0.412904 -1.176902 -0.166356
